#!OML:ASF H:\Terrain\Patient Classification 1\Walking\liu\liu.ASF
:FULLY-SPECIFIED
:DEGREES
300
root 9.1986 17.1084 25.1941 7.40342 -1.06729 -1.0557
lowerback -2.86716 -0.375174 -3.15396
upperback -2.55959 -0.428974 2.36001
thorax -0.983612 -0.149779 4.19472
lowerneck -13.4199 -3.53296 -13.6172
upperneck 19.5089 -5.04568 14.6545
head 9.02025 -1.93806 6.81126
rclavicle 2.04375e-015 8.74653e-015
rhumerus -40.6005 18.8659 -89.9923
rradius 40.0217
rwrist -23.8885
rhand -30.5985 -28.6331
rfingers 7.12502
rthumb -3.8954 -58.5773
lclavicle 2.04375e-015 8.74653e-015
lhumerus -42.4887 -13.7499 95.3735
lradius 28.4188
lwrist 6.60664
lhand -12.7534 -24.47
lfingers 7.12502
lthumb 13.3309 5.08358
rfemur -18.1576 4.78299 26.4456
rtibia 34.8754
rfoot -21.7221 0.291998
rtoes -17.9779
lfemur -34.2626 7.39058 -19.7054
ltibia 63.7385
lfoot -15.2417 12.3724
ltoes -10.0484
301
root 9.20639 17.1053 25.3805 7.20387 -1.40759 -1.13216
lowerback -2.8155 -0.0485335 -3.03741
upperback -1.45691 0.0010907 2.2988
thorax 0.0813966 0.0235169 4.07305
lowerneck -17.5403 -4.18478 -13.01
upperneck 20.2964 -5.5773 14.1091
head 10.1367 -2.04707 6.47579
rclavicle -4.29872e-015 1.31198e-014
rhumerus -37.3599 19.3978 -89.4082
rradius 40.2609
rwrist -24.3171
rhand -30.8823 -28.5603
rfingers 7.12502
rthumb -4.16946 -58.4992
lclavicle -4.29872e-015 1.31198e-014
lhumerus -41.2323 -14.2156 95.1667
lradius 28.0355
lwrist 6.93212
lhand -12.803 -24.6857
lfingers 7.12502
lthumb 13.2831 4.87103
rfemur -16.8421 5.10455 26.5762
rtibia 34.2239
rfoot -22.4407 0.0667229
rtoes -17.712
lfemur -35.2294 7.34751 -19.6982
ltibia 62.2116
lfoot -16.0231 11.8162
ltoes -7.83602
302
root 9.20565 17.1032 25.5594 7.10497 -1.78268 -1.67371
lowerback -2.95294 0.223339 -2.57245
upperback -1.02256 0.35176 2.42662
thorax 0.574544 0.181572 3.95456
lowerneck -18.3388 -4.25467 -12.6256
upperneck 20.1797 -5.58011 13.6993
head 10.2236 -2.0339 6.24918
rclavicle -4.84538e-015 -1.35174e-014
rhumerus -35.756 20.1017 -89.2733
rradius 40.6601
rwrist -24.9614
rhand -31.1153 -27.3784
rfingers 7.12502
rthumb -4.39447 -57.3128
lclavicle -4.84538e-015 -1.35174e-014
lhumerus -41.5716 -14.2696 95.2282
lradius 27.8263
lwrist 7.09598
lhand -12.8871 -24.6316
lfingers 7.12502
lthumb 13.202 4.93041
rfemur -15.5841 5.80188 27.2504
rtibia 33.3699
rfoot -22.5577 -0.479174
rtoes -18.9867
lfemur -36.4159 7.49194 -19.1073
ltibia 60.5912
lfoot -16.4743 11.0722
ltoes -6.80879
303
root 9.21051 17.1091 25.7458 7.16227 -2.00561 -1.98251
lowerback -3.48699 0.339197 -2.26103
upperback -1.27825 0.504834 2.57111
thorax 0.598824 0.261474 3.93682
lowerneck -15.8684 -3.84557 -12.8986
upperneck 19.3852 -5.12754 13.6653
head 9.41105 -1.93227 6.30729
rclavicle 7.82715e-015 1.31198e-014
rhumerus -35.9112 20.4883 -89.2867
rradius 41.5714
rwrist -24.9065
rhand -30.7492 -27.2745
rfingers 7.12502
rthumb -4.04091 -57.2159
lclavicle 7.82715e-015 1.31198e-014
lhumerus -43.5908 -13.8527 95.6087
lradius 27.9224
lwrist 7.02851
lhand -12.665 -24.5197
lfingers 7.12502
lthumb 13.4161 5.02825
rfemur -14.3594 6.06423 27.6374
rtibia 32.3429
rfoot -22.5224 -0.638746
rtoes -19.8313
lfemur -37.6037 7.49877 -18.8422
ltibia 58.7423
lfoot -16.1493 10.7829
ltoes -5.09755
304
root 9.22198 17.1258 25.9461 7.1366 -2.32485 -1.7064
lowerback -3.22092 0.545492 -2.39693
upperback -1.22181 0.782194 2.39541
thorax 0.484997 0.401555 3.83873
lowerneck -17.2079 -4.17241 -13.2221
upperneck 19.9949 -5.50251 14.0914
head 9.96024 -2.04186 6.50258
rclavicle -3.65267e-015 0
rhumerus -34.9262 20.5523 -89.0931
rradius 42.3288
rwrist -24.6877
rhand -30.6111 -28.1496
rfingers 7.12502
rthumb -3.90761 -58.0935
lclavicle -3.65267e-015 0
lhumerus -44.5781 -13.7904 95.5618
lradius 28.016
lwrist 7.03607
lhand -11.9824 -24.3058
lfingers 7.12502
lthumb 14.0739 5.1976
rfemur -12.954 5.97554 27.32
rtibia 31.1967
rfoot -22.6363 -0.279555
rtoes -19.0925
lfemur -38.3949 7.41068 -19.2429
ltibia 56.6203
lfoot -15.8446 10.8121
ltoes -5.23563
305
root 9.23165 17.1442 26.1481 7.03376 -2.77654 -1.57939
lowerback -3.00471 0.656808 -2.50861
upperback -1.51937 0.93302 2.31528
thorax 0.0450254 0.489572 3.81782
lowerneck -16.5044 -4.04749 -13.1178
upperneck 19.9379 -5.42273 14.0432
head 9.78798 -2.02628 6.47227
rclavicle -3.926e-015 9.54166e-015
rhumerus -34.785 21.1987 -89.5177
rradius 42.7684
rwrist -24.5135
rhand -30.7094 -28.3611
rfingers 7.12502
rthumb -4.00254 -58.3033
lclavicle -3.926e-015 9.54166e-015
lhumerus -46.5288 -13.2826 95.6258
lradius 28.1282
lwrist 6.99657
lhand -11.895 -24.2293
lfingers 7.12502
lthumb 14.1582 5.26822
rfemur -11.4517 5.95359 27.154
rtibia 30.0123
rfoot -22.6706 0.116537
rtoes -17.5776
lfemur -39.0082 7.3442 -19.39
ltibia 54.3242
lfoot -16.0935 10.6067
ltoes -7.46757
